<svg fill="none" height="63" width="60" xmlns="http://www.w3.org/2000/svg" xmlns:xlink="http://www.w3.org/1999/xlink"><filter id="a" color-interpolation-filters="sRGB" filterUnits="userSpaceOnUse" height="68" width="68" x="-4" y="0"><feFlood flood-opacity="0" result="BackgroundImageFix"/><feColorMatrix in="SourceAlpha" values="0 0 0 0 0 0 0 0 0 0 0 0 0 0 0 0 0 0 127 0"/><feOffset dy="4"/><feGaussianBlur stdDeviation="2"/><feColorMatrix values="0 0 0 0 0 0 0 0 0 0 0 0 0 0 0 0 0 0 0.5 0"/><feBlend in2="BackgroundImageFix" result="effect1_dropShadow"/><feBlend in="SourceGraphic" in2="effect1_dropShadow" result="shape"/></filter><g style="stroke:#000;stroke-width:2;stroke-miterlimit:10;stroke-linecap:round;stroke-linejoin:round;filter:url(#a)"><path d="m22.384 50.929v2.43h21.749c0-7.414 1.323-8.49 3.938-11.936 2.614-3.445 2.491-8.275 3.045-10.644.554-2.368 1.63-5.752 1.938-8.336.338-2.584.43-4.768-1.415-5.414-1.846-.646-5.137-.77-7.845 8.675 0 0 .216-7.753.216-9.906s-1.23-5.383-3.6-5.537c-2.368-.154-5.075.769-5.444 6.214-.37 5.445-.339 9.013-.339 9.013s-.061-8.336-.123-11.659c-.061-3.322-.492-6.829-4.307-6.829-2.922 0-4.614 2.246-4.645 5.291-.061 3.046.185 13.32.185 13.32s-1.261-8.029-3.722-12.15c-2.461-4.123-4.4-3.692-6.215-3.108-1.815.585-3.322 2.307-1.784 6.06s3.569 7.814 5.384 15.843c0 0-2.4-3.784-4.645-5.506-2.246-1.723-6.368-1.17-7.322.922s-.215 4.153 1.077 5.968 3.107 2.984 4.614 5.66c1.508 2.677 2.092 4.707 4.707 6.8 2.615 2.06 4.553 3.198 4.553 4.829z" fill="#fff"/><path d="m28.598 33.64v10.552m5.906-10.552v10.552m5.906-10.552v10.552"/></g></svg>