<svg width="60" height="63" fill="none" xmlns="http://www.w3.org/2000/svg"><g filter="url(#filter0_d)" stroke="#000" stroke-width="2" stroke-miterlimit="10" stroke-linecap="round" stroke-linejoin="round"><path d="M47.761 41.715c-2.614 3.445-3.937 4.522-3.937 11.936h-21.78v-2.43C22.044 48.544 11 43.715 11 33.932c0-3.26 2.369-4.43 3.845-4.491 1.477-.062 2.646.092 4.307 2.83 0 0-5.568-9.783-.184-11.628 3.322-1.139 5.63 1.2 6.552 4.922 0 0-1.23-7.26 3.753-7.26 4.284 0 4.976 3.205 5.086 5.96.082-1.886.695-5.16 3.958-5.16 4.584 0 5.045 3.322 5.26 6.675 0 0 .216-3.66 3.323-3.66 2.769 0 3.507 1.599 3.507 4.121 0 5.26-.03 12.029-2.646 15.474z" fill="#fff"/><path d="M28.289 33.932v10.521m5.906-10.521v10.521m5.937-10.521v10.521"/></g><defs><filter id="filter0_d" x="-4" y="0" width="68" height="68" filterUnits="userSpaceOnUse" color-interpolation-filters="sRGB"><feFlood flood-opacity="0" result="BackgroundImageFix"/><feColorMatrix in="SourceAlpha" values="0 0 0 0 0 0 0 0 0 0 0 0 0 0 0 0 0 0 127 0"/><feOffset dy="4"/><feGaussianBlur stdDeviation="2"/><feColorMatrix values="0 0 0 0 0 0 0 0 0 0 0 0 0 0 0 0 0 0 0.5 0"/><feBlend in2="BackgroundImageFix" result="effect1_dropShadow"/><feBlend in="SourceGraphic" in2="effect1_dropShadow" result="shape"/></filter></defs></svg>