<?xml version="1.0" encoding="utf-8"?>
<!-- Generator: Adobe Illustrator 24.1.0, SVG Export Plug-In . SVG Version: 6.00 Build 0)  -->
<svg version="1.1" id="Layer_1" xmlns="http://www.w3.org/2000/svg" xmlns:xlink="http://www.w3.org/1999/xlink" x="0px" y="0px"
	 viewBox="0 0 691.4 354.2" style="enable-background:new 0 0 691.4 354.2;" xml:space="preserve">
<style type="text/css">
	.st0{fill:#2222FF;fill-opacity:0.125;stroke:#6666FF;stroke-width:2.5789;stroke-linecap:round;}
	.st1{fill:#0000FF;stroke:#0000FF;stroke-width:2.5789;stroke-linecap:round;}
	.st2{fill:#FFFFFF;}
	.st3{fill:none;stroke:#0000FF;stroke-width:2.5789;stroke-linecap:round;stroke-linejoin:round;}
	.st4{fill:none;stroke:#0000FF;stroke-width:2.5789;stroke-linecap:round;stroke-linejoin:round;stroke-dasharray:0,4.7577;}
	.st5{fill:none;stroke:#0000FF;stroke-width:2.5789;stroke-linecap:round;stroke-linejoin:round;stroke-dasharray:0,4.7135;}
	.st6{fill:none;stroke:#0000FF;stroke-width:2.5789;stroke-linecap:round;stroke-linejoin:round;stroke-dasharray:0,4.7813;}
	.st7{fill:none;stroke:#0000FF;stroke-width:2.5789;stroke-linecap:round;stroke-linejoin:round;stroke-dasharray:0,4.7077;}
	.st8{fill:none;stroke:#0000FF;stroke-width:2.5789;stroke-linecap:round;stroke-linejoin:round;stroke-dasharray:0,4.7255;}
	.st9{fill:none;stroke:#0000FF;stroke-width:2.5789;stroke-linecap:round;stroke-linejoin:round;stroke-dasharray:0,4.7419;}
	.st10{fill:#FFFFFF;stroke:#0000FF;stroke-width:2.5789;stroke-linecap:round;}
</style>
<g>
	<path class="st0" d="M13,183.2c0,6.3,0,12.7,0,20.1c0,114.2,34.9,138.5,113.1,138.5h413.4c4.2-22.2,7.4-46.5,7.4-66.6
		c0-69.8-18-92-77.2-92H13z"/>
	<path class="st0" d="M149.8,12.4c0,48.6,0,90.9,0,139.6c0,7.4,4.2,11.6,11.6,11.6h517.1c0-48.6,0-90.9,0-139.6
		c0-7.4-4.2-11.6-11.6-11.6L149.8,12.4z"/>
	<path class="st1" d="M14.1,190.7c0.6-0.6,0.6-1.6,0-2.2c-0.6-0.6-1.6-0.6-2.2,0c-0.6,0.6-0.6,1.6,0,2.2
		C12.5,191.3,13.5,191.3,14.1,190.7z"/>
	<path class="st1" d="M14.1,197c0.6-0.6,0.6-1.6,0-2.2c-0.6-0.6-1.6-0.6-2.2,0c-0.6,0.6-0.6,1.6,0,2.2
		C12.5,197.6,13.5,197.6,14.1,197z"/>
	<path class="st1" d="M14.1,318.6c0.6-0.6,0.6-1.6,0-2.2c-0.6-0.6-1.6-0.6-2.2,0c-0.6,0.6-0.6,1.6,0,2.2
		C12.5,319.2,13.5,319.2,14.1,318.6z"/>
	<path class="st1" d="M49,342.9c0.6-0.6,0.6-1.6,0-2.2c-0.6-0.6-1.6-0.6-2.2,0c-0.6,0.6-0.6,1.6,0,2.2
		C47.4,343.5,48.4,343.5,49,342.9z"/>
	<path class="st1" d="M544.9,320.7c0.6-0.6,0.6-1.6,0-2.2c-0.6-0.6-1.6-0.6-2.2,0c-0.6,0.6-0.6,1.6,0,2.2
		C543.3,321.3,544.3,321.3,544.9,320.7z"/>
	<path class="st1" d="M548.1,296.4c0.6-0.6,0.6-1.6,0-2.2c-0.6-0.6-1.6-0.6-2.2,0c-0.6,0.6-0.6,1.6,0,2.2
		C546.5,297,547.5,297,548.1,296.4z"/>
	<path class="st1" d="M548.1,206.5c0.6-0.6,0.6-1.6,0-2.2c-0.6-0.6-1.6-0.6-2.2,0c-0.6,0.6-0.6,1.6,0,2.2
		C546.5,207.1,547.5,207.1,548.1,206.5z"/>
	<path class="st1" d="M530.1,184.3c0.6-0.6,0.6-1.6,0-2.2c-0.6-0.6-1.6-0.6-2.2,0c-0.6,0.6-0.6,1.6,0,2.2
		C528.5,184.9,529.5,184.9,530.1,184.3z"/>
	<path class="st1" d="M150.9,62.1c0.6-0.6,0.6-1.6,0-2.2c-0.6-0.6-1.6-0.6-2.2,0c-0.6,0.6-0.6,1.6,0,2.2
		C149.3,62.7,150.3,62.7,150.9,62.1z"/>
	<path class="st1" d="M150.9,104.4c0.6-0.6,0.6-1.6,0-2.2c-0.6-0.6-1.6-0.6-2.2,0c-0.6,0.6-0.6,1.6,0,2.2
		C149.3,105,150.3,105,150.9,104.4z"/>
	<path class="st1" d="M150.9,160.5c0.6-0.6,0.6-1.6,0-2.2c-0.6-0.6-1.6-0.6-2.2,0c-0.6,0.6-0.6,1.6,0,2.2
		C149.3,161.1,150.3,161.1,150.9,160.5z"/>
	<path class="st1" d="M155.1,164.7c0.6-0.6,0.6-1.6,0-2.2c-0.6-0.6-1.6-0.6-2.2,0c-0.6,0.6-0.6,1.6,0,2.2
		C153.5,165.3,154.5,165.3,155.1,164.7z"/>
	<path class="st1" d="M679.6,116c0.6-0.6,0.6-1.6,0-2.2c-0.6-0.6-1.6-0.6-2.2,0c-0.6,0.6-0.6,1.6,0,2.2
		C678,116.7,679,116.7,679.6,116z"/>
	<path class="st1" d="M679.6,73.8c0.6-0.6,0.6-1.6,0-2.2c-0.6-0.6-1.6-0.6-2.2,0c-0.6,0.6-0.6,1.6,0,2.2
		C678,74.4,679,74.4,679.6,73.8z"/>
	<path class="st1" d="M679.6,17.7c0.6-0.6,0.6-1.6,0-2.2c-0.6-0.6-1.6-0.6-2.2,0c-0.6,0.6-0.6,1.6,0,2.2
		C678,18.3,679,18.3,679.6,17.7z"/>
	<path class="st1" d="M675.4,13.5c0.6-0.6,0.6-1.6,0-2.2c-0.6-0.6-1.6-0.6-2.2,0c-0.6,0.6-0.6,1.6,0,2.2
		C673.7,14.1,674.7,14.1,675.4,13.5z"/>
	<g>
		<line class="st2" x1="13" y1="183.2" x2="149.8" y2="12.4"/>
		<g>
			<line class="st3" x1="13" y1="183.2" x2="13" y2="183.2"/>
			<line class="st4" x1="15.9" y1="179.5" x2="148.3" y2="14.2"/>
			<line class="st3" x1="149.8" y1="12.4" x2="149.8" y2="12.4"/>
		</g>
	</g>
	<g>
		<line class="st2" x1="13" y1="203.3" x2="149.8" y2="151.9"/>
		<g>
			<line class="st3" x1="13" y1="203.3" x2="13" y2="203.3"/>
			<line class="st5" x1="17.4" y1="201.6" x2="147.6" y2="152.8"/>
			<line class="st3" x1="149.8" y1="151.9" x2="149.8" y2="151.9"/>
		</g>
	</g>
	<g>
		<line class="st2" x1="126.1" y1="341.8" x2="161.4" y2="163.6"/>
		<g>
			<line class="st3" x1="126.1" y1="341.8" x2="126.1" y2="341.8"/>
			<line class="st6" x1="127" y1="337.1" x2="160.9" y2="165.9"/>
			<line class="st3" x1="161.4" y1="163.6" x2="161.4" y2="163.6"/>
		</g>
	</g>
	<g>
		<line class="st2" x1="539.5" y1="341.8" x2="678.5" y2="163.6"/>
		<g>
			<line class="st3" x1="539.5" y1="341.8" x2="539.5" y2="341.8"/>
			<line class="st7" x1="542.4" y1="338.1" x2="677" y2="165.4"/>
			<line class="st3" x1="678.5" y1="163.6" x2="678.5" y2="163.6"/>
		</g>
	</g>
	<g>
		<line class="st2" x1="546.9" y1="275.2" x2="678.5" y2="24"/>
		<g>
			<line class="st3" x1="546.9" y1="275.2" x2="546.9" y2="275.2"/>
			<line class="st8" x1="549.1" y1="271" x2="677.4" y2="26.1"/>
			<line class="st3" x1="678.5" y1="24" x2="678.5" y2="24"/>
		</g>
	</g>
	<g>
		<line class="st2" x1="469.8" y1="183.2" x2="666.8" y2="12.4"/>
		<g>
			<line class="st3" x1="469.8" y1="183.2" x2="469.8" y2="183.2"/>
			<line class="st9" x1="473.3" y1="180.1" x2="665" y2="13.9"/>
			<line class="st3" x1="666.8" y1="12.4" x2="666.8" y2="12.4"/>
		</g>
	</g>
	<path class="st10" d="M13,183.2L13,183.2"/>
	<path class="st10" d="M13,183.2v6.3"/>
	<path class="st10" d="M16.7,186.9c2.1-2.1,2.1-5.4,0-7.5c-2.1-2.1-5.4-2.1-7.5,0c-2.1,2.1-2.1,5.4,0,7.5
		C11.3,189,14.7,189,16.7,186.9z"/>
	<path class="st10" d="M13,203.3v-7.4"/>
	<path class="st10" d="M13,203.3v114.2"/>
	<path class="st10" d="M16.7,207c2.1-2.1,2.1-5.4,0-7.5s-5.4-2.1-7.5,0s-2.1,5.4,0,7.5S14.7,209.1,16.7,207z"/>
	<path class="st10" d="M126.1,341.8H47.9"/>
	<path class="st10" d="M126.1,341.8L126.1,341.8"/>
	<path class="st10" d="M129.9,345.5c2.1-2.1,2.1-5.4,0-7.5c-2.1-2.1-5.4-2.1-7.5,0c-2.1,2.1-2.1,5.4,0,7.5
		C124.4,347.6,127.8,347.6,129.9,345.5z"/>
	<path class="st10" d="M539.5,341.8L539.5,341.8"/>
	<path class="st10" d="M539.5,341.8l4.2-22.2"/>
	<path class="st10" d="M543.3,345.5c2.1-2.1,2.1-5.4,0-7.5c-2.1-2.1-5.4-2.1-7.5,0s-2.1,5.4,0,7.5
		C537.9,347.6,541.2,347.6,543.3,345.5z"/>
	<path class="st10" d="M546.9,275.2v20.1"/>
	<path class="st10" d="M546.9,275.2v-69.8"/>
	<path class="st10" d="M550.7,278.9c2.1-2.1,2.1-5.4,0-7.5c-2.1-2.1-5.4-2.1-7.5,0c-2.1,2.1-2.1,5.4,0,7.5S548.6,281,550.7,278.9z"
		/>
	<path class="st10" d="M469.8,183.2H529"/>
	<path class="st10" d="M469.8,183.2L469.8,183.2"/>
	<path class="st10" d="M473.5,186.9c2.1-2.1,2.1-5.4,0-7.5c-2.1-2.1-5.4-2.1-7.5,0c-2.1,2.1-2.1,5.4,0,7.5
		C468.1,189,471.4,189,473.5,186.9z"/>
	<path class="st10" d="M149.8,12.4L149.8,12.4"/>
	<path class="st10" d="M149.8,12.4V61"/>
	<path class="st10" d="M153.5,16.1c2.1-2.1,2.1-5.4,0-7.5s-5.4-2.1-7.5,0c-2.1,2.1-2.1,5.4,0,7.5C148.1,18.2,151.5,18.2,153.5,16.1z
		"/>
	<path class="st10" d="M149.8,151.9v-48.6"/>
	<path class="st10" d="M149.8,151.9v7.4"/>
	<path class="st10" d="M153.5,155.7c2.1-2.1,2.1-5.4,0-7.5s-5.4-2.1-7.5,0c-2.1,2.1-2.1,5.4,0,7.5
		C148.1,157.7,151.5,157.7,153.5,155.7z"/>
	<path class="st10" d="M161.4,163.6H154"/>
	<path class="st10" d="M161.4,163.6L161.4,163.6"/>
	<path class="st10" d="M165.2,167.3c2.1-2.1,2.1-5.4,0-7.5c-2.1-2.1-5.4-2.1-7.5,0c-2.1,2.1-2.1,5.4,0,7.5
		C159.7,169.4,163.1,169.4,165.2,167.3z"/>
	<path class="st10" d="M678.5,163.6L678.5,163.6"/>
	<path class="st10" d="M678.5,163.6v-48.6"/>
	<path class="st10" d="M682.2,167.3c2.1-2.1,2.1-5.4,0-7.5c-2.1-2.1-5.4-2.1-7.5,0c-2.1,2.1-2.1,5.4,0,7.5S680.1,169.4,682.2,167.3z
		"/>
	<path class="st10" d="M678.5,24v48.6"/>
	<path class="st10" d="M678.5,24v-7.4"/>
	<path class="st10" d="M682.2,27.7c2.1-2.1,2.1-5.4,0-7.5s-5.4-2.1-7.5,0s-2.1,5.4,0,7.5S680.1,29.8,682.2,27.7z"/>
	<path class="st10" d="M666.8,12.4h7.4"/>
	<path class="st10" d="M666.8,12.4L666.8,12.4"/>
	<path class="st10" d="M670.6,16.1c2.1-2.1,2.1-5.4,0-7.5s-5.4-2.1-7.5,0s-2.1,5.4,0,7.5S668.5,18.2,670.6,16.1z"/>
</g>
</svg>
