<?xml version="1.0" encoding="utf-8"?>
<!-- Generator: Adobe Illustrator 24.1.0, SVG Export Plug-In . SVG Version: 6.00 Build 0)  -->
<svg version="1.1" id="Layer_1" xmlns="http://www.w3.org/2000/svg" xmlns:xlink="http://www.w3.org/1999/xlink" x="0px" y="0px"
	 viewBox="0 0 678.6 342.6" style="enable-background:new 0 0 678.6 342.6;" xml:space="preserve">
<style type="text/css">
	.st0{fill:#2222FF;fill-opacity:0.125;stroke:#6666FF;stroke-width:2.5789;stroke-linecap:round;}
	.st1{fill:#0000FF;stroke:#0000FF;stroke-width:2.5789;stroke-linecap:round;}
	.st2{fill:#FFFFFF;}
	.st3{fill:none;stroke:#0000FF;stroke-width:2.5789;stroke-linecap:round;stroke-linejoin:round;}
	.st4{fill:none;stroke:#0000FF;stroke-width:2.5789;stroke-linecap:round;stroke-linejoin:round;stroke-dasharray:0,4.7577;}
	.st5{fill:none;stroke:#0000FF;stroke-width:2.5789;stroke-linecap:round;stroke-linejoin:round;stroke-dasharray:0,4.7135;}
	.st6{fill:none;stroke:#0000FF;stroke-width:2.5789;stroke-linecap:round;stroke-linejoin:round;stroke-dasharray:0,4.7813;}
	.st7{fill:none;stroke:#0000FF;stroke-width:2.5789;stroke-linecap:round;stroke-linejoin:round;stroke-dasharray:0,4.7077;}
	.st8{fill:none;stroke:#0000FF;stroke-width:2.5789;stroke-linecap:round;stroke-linejoin:round;stroke-dasharray:0,4.7255;}
	.st9{fill:none;stroke:#0000FF;stroke-width:2.5789;stroke-linecap:round;stroke-linejoin:round;stroke-dasharray:0,4.7419;}
	.st10{fill:#FFFFFF;stroke:#0000FF;stroke-width:2.5789;stroke-linecap:round;}
</style>
<g>
	<path class="st0" d="M6.6,177.4c0,6.3,0,12.7,0,20.1C6.6,311.7,41.5,336,119.7,336h413.4c4.2-22.2,7.4-46.5,7.4-66.6
		c0-69.8-18-92-77.2-92H6.6z"/>
	<path class="st0" d="M143.4,6.6c0,48.6,0,90.9,0,139.6c0,7.4,4.2,11.6,11.6,11.6h517.1c0-48.6,0-90.9,0-139.6
		c0-7.4-4.2-11.6-11.6-11.6L143.4,6.6z"/>
	<path class="st1" d="M7.7,184.9c0.6-0.6,0.6-1.6,0-2.2c-0.6-0.6-1.6-0.6-2.2,0c-0.6,0.6-0.6,1.6,0,2.2
		C6.1,185.5,7.1,185.5,7.7,184.9z"/>
	<path class="st1" d="M7.7,191.2c0.6-0.6,0.6-1.6,0-2.2c-0.6-0.6-1.6-0.6-2.2,0c-0.6,0.6-0.6,1.6,0,2.2
		C6.1,191.8,7.1,191.8,7.7,191.2z"/>
	<path class="st1" d="M7.7,312.8c0.6-0.6,0.6-1.6,0-2.2c-0.6-0.6-1.6-0.6-2.2,0c-0.6,0.6-0.6,1.6,0,2.2
		C6.1,313.4,7.1,313.4,7.7,312.8z"/>
	<path class="st1" d="M42.6,337.1c0.6-0.6,0.6-1.6,0-2.2c-0.6-0.6-1.6-0.6-2.2,0c-0.6,0.6-0.6,1.6,0,2.2
		C41,337.7,42,337.7,42.6,337.1z"/>
	<path class="st1" d="M538.5,314.9c0.6-0.6,0.6-1.6,0-2.2c-0.6-0.6-1.6-0.6-2.2,0c-0.6,0.6-0.6,1.6,0,2.2
		C536.9,315.5,537.9,315.5,538.5,314.9z"/>
	<path class="st1" d="M541.7,290.6c0.6-0.6,0.6-1.6,0-2.2c-0.6-0.6-1.6-0.6-2.2,0c-0.6,0.6-0.6,1.6,0,2.2
		C540,291.2,541,291.2,541.7,290.6z"/>
	<path class="st1" d="M541.7,200.7c0.6-0.6,0.6-1.6,0-2.2c-0.6-0.6-1.6-0.6-2.2,0c-0.6,0.6-0.6,1.6,0,2.2
		C540,201.3,541,201.3,541.7,200.7z"/>
	<path class="st1" d="M523.7,178.5c0.6-0.6,0.6-1.6,0-2.2c-0.6-0.6-1.6-0.6-2.2,0c-0.6,0.6-0.6,1.6,0,2.2
		C522.1,179.1,523.1,179.1,523.7,178.5z"/>
	<path class="st1" d="M144.5,56.3c0.6-0.6,0.6-1.6,0-2.2c-0.6-0.6-1.6-0.6-2.2,0c-0.6,0.6-0.6,1.6,0,2.2
		C142.9,57,143.9,57,144.5,56.3z"/>
	<path class="st1" d="M144.5,98.6c0.6-0.6,0.6-1.6,0-2.2c-0.6-0.6-1.6-0.6-2.2,0c-0.6,0.6-0.6,1.6,0,2.2
		C142.9,99.2,143.9,99.2,144.5,98.6z"/>
	<path class="st1" d="M144.5,154.7c0.6-0.6,0.6-1.6,0-2.2c-0.6-0.6-1.6-0.6-2.2,0c-0.6,0.6-0.6,1.6,0,2.2
		C142.9,155.3,143.9,155.3,144.5,154.7z"/>
	<path class="st1" d="M148.7,158.9c0.6-0.6,0.6-1.6,0-2.2c-0.6-0.6-1.6-0.6-2.2,0c-0.6,0.6-0.6,1.6,0,2.2
		C147.1,159.5,148.1,159.5,148.7,158.9z"/>
	<path class="st1" d="M673.2,110.3c0.6-0.6,0.6-1.6,0-2.2c-0.6-0.6-1.6-0.6-2.2,0c-0.6,0.6-0.6,1.6,0,2.2
		C671.6,110.9,672.6,110.9,673.2,110.3z"/>
	<path class="st1" d="M673.2,68c0.6-0.6,0.6-1.6,0-2.2c-0.6-0.6-1.6-0.6-2.2,0c-0.6,0.6-0.6,1.6,0,2.2
		C671.6,68.6,672.6,68.6,673.2,68z"/>
	<path class="st1" d="M673.2,11.9c0.6-0.6,0.6-1.6,0-2.2c-0.6-0.6-1.6-0.6-2.2,0c-0.6,0.6-0.6,1.6,0,2.2
		C671.6,12.5,672.6,12.5,673.2,11.9z"/>
	<path class="st1" d="M668.9,7.7c0.6-0.6,0.6-1.6,0-2.2c-0.6-0.6-1.6-0.6-2.2,0c-0.6,0.6-0.6,1.6,0,2.2
		C667.3,8.3,668.3,8.3,668.9,7.7z"/>
	<g>
		<line class="st2" x1="6.6" y1="177.4" x2="143.4" y2="6.6"/>
		<g>
			<line class="st3" x1="6.6" y1="177.4" x2="6.6" y2="177.4"/>
			<line class="st4" x1="9.5" y1="173.7" x2="141.9" y2="8.4"/>
			<line class="st3" x1="143.4" y1="6.6" x2="143.4" y2="6.6"/>
		</g>
	</g>
	<g>
		<line class="st2" x1="6.6" y1="197.5" x2="143.4" y2="146.1"/>
		<g>
			<line class="st3" x1="6.6" y1="197.5" x2="6.6" y2="197.5"/>
			<line class="st5" x1="11" y1="195.8" x2="141.2" y2="147"/>
			<line class="st3" x1="143.4" y1="146.1" x2="143.4" y2="146.1"/>
		</g>
	</g>
	<g>
		<line class="st2" x1="119.7" y1="336" x2="155" y2="157.8"/>
		<g>
			<line class="st3" x1="119.7" y1="336" x2="119.7" y2="336"/>
			<line class="st6" x1="120.6" y1="331.3" x2="154.5" y2="160.1"/>
			<line class="st3" x1="155" y1="157.8" x2="155" y2="157.8"/>
		</g>
	</g>
	<g>
		<line class="st2" x1="533.1" y1="336" x2="672.1" y2="157.8"/>
		<g>
			<line class="st3" x1="533.1" y1="336" x2="533.1" y2="336"/>
			<line class="st7" x1="536" y1="332.3" x2="670.6" y2="159.6"/>
			<line class="st3" x1="672.1" y1="157.8" x2="672.1" y2="157.8"/>
		</g>
	</g>
	<g>
		<line class="st2" x1="540.5" y1="269.4" x2="672.1" y2="18.2"/>
		<g>
			<line class="st3" x1="540.5" y1="269.4" x2="540.5" y2="269.4"/>
			<line class="st8" x1="542.7" y1="265.2" x2="671" y2="20.3"/>
			<line class="st3" x1="672.1" y1="18.2" x2="672.1" y2="18.2"/>
		</g>
	</g>
	<g>
		<line class="st2" x1="463.4" y1="177.4" x2="660.4" y2="6.6"/>
		<g>
			<line class="st3" x1="463.4" y1="177.4" x2="463.4" y2="177.4"/>
			<line class="st9" x1="466.9" y1="174.3" x2="658.6" y2="8.1"/>
			<line class="st3" x1="660.4" y1="6.6" x2="660.4" y2="6.6"/>
		</g>
	</g>
	<path class="st10" d="M6.6,177.4L6.6,177.4"/>
	<path class="st10" d="M6.6,177.4v6.3"/>
	<path class="st10" d="M10.3,181.1c2.1-2.1,2.1-5.4,0-7.5c-2.1-2.1-5.4-2.1-7.5,0c-2.1,2.1-2.1,5.4,0,7.5
		C4.9,183.2,8.2,183.2,10.3,181.1z"/>
	<path class="st10" d="M6.6,197.5v-7.4"/>
	<path class="st10" d="M6.6,197.5v114.2"/>
	<path class="st10" d="M10.3,201.2c2.1-2.1,2.1-5.4,0-7.5c-2.1-2.1-5.4-2.1-7.5,0c-2.1,2.1-2.1,5.4,0,7.5
		C4.9,203.3,8.2,203.3,10.3,201.2z"/>
	<path class="st10" d="M119.7,336H41.5"/>
	<path class="st10" d="M119.7,336L119.7,336"/>
	<path class="st10" d="M123.4,339.7c2.1-2.1,2.1-5.4,0-7.5c-2.1-2.1-5.4-2.1-7.5,0c-2.1,2.1-2.1,5.4,0,7.5
		C118,341.8,121.4,341.8,123.4,339.7z"/>
	<path class="st10" d="M533.1,336L533.1,336"/>
	<path class="st10" d="M533.1,336l4.2-22.2"/>
	<path class="st10" d="M536.9,339.7c2.1-2.1,2.1-5.4,0-7.5c-2.1-2.1-5.4-2.1-7.5,0c-2.1,2.1-2.1,5.4,0,7.5
		C531.5,341.8,534.8,341.8,536.9,339.7z"/>
	<path class="st10" d="M540.5,269.4v20.1"/>
	<path class="st10" d="M540.5,269.4v-69.8"/>
	<path class="st10" d="M544.3,273.1c2.1-2.1,2.1-5.4,0-7.5c-2.1-2.1-5.4-2.1-7.5,0s-2.1,5.4,0,7.5
		C538.9,275.2,542.2,275.2,544.3,273.1z"/>
	<path class="st10" d="M463.4,177.4h59.2"/>
	<path class="st10" d="M463.4,177.4L463.4,177.4"/>
	<path class="st10" d="M467.1,181.1c2.1-2.1,2.1-5.4,0-7.5c-2.1-2.1-5.4-2.1-7.5,0c-2.1,2.1-2.1,5.4,0,7.5
		C461.7,183.2,465,183.2,467.1,181.1z"/>
	<path class="st10" d="M143.4,6.6L143.4,6.6"/>
	<path class="st10" d="M143.4,6.6v48.6"/>
	<path class="st10" d="M147.1,10.3c2.1-2.1,2.1-5.4,0-7.5c-2.1-2.1-5.4-2.1-7.5,0c-2.1,2.1-2.1,5.4,0,7.5
		C141.7,12.4,145.1,12.4,147.1,10.3z"/>
	<path class="st10" d="M143.4,146.1V97.5"/>
	<path class="st10" d="M143.4,146.1v7.4"/>
	<path class="st10" d="M147.1,149.9c2.1-2.1,2.1-5.4,0-7.5c-2.1-2.1-5.4-2.1-7.5,0c-2.1,2.1-2.1,5.4,0,7.5
		C141.7,151.9,145.1,151.9,147.1,149.9z"/>
	<path class="st10" d="M155,157.8h-7.4"/>
	<path class="st10" d="M155,157.8L155,157.8"/>
	<path class="st10" d="M158.7,161.5c2.1-2.1,2.1-5.4,0-7.5c-2.1-2.1-5.4-2.1-7.5,0c-2.1,2.1-2.1,5.4,0,7.5
		C153.3,163.6,156.7,163.6,158.7,161.5z"/>
	<path class="st10" d="M672.1,157.8L672.1,157.8"/>
	<path class="st10" d="M672.1,157.8v-48.6"/>
	<path class="st10" d="M675.8,161.5c2.1-2.1,2.1-5.4,0-7.5c-2.1-2.1-5.4-2.1-7.5,0s-2.1,5.4,0,7.5
		C670.4,163.6,673.7,163.6,675.8,161.5z"/>
	<path class="st10" d="M672.1,18.2v48.6"/>
	<path class="st10" d="M672.1,18.2v-7.4"/>
	<path class="st10" d="M675.8,21.9c2.1-2.1,2.1-5.4,0-7.5c-2.1-2.1-5.4-2.1-7.5,0s-2.1,5.4,0,7.5S673.7,24,675.8,21.9z"/>
	<path class="st10" d="M660.4,6.6h7.4"/>
	<path class="st10" d="M660.4,6.6L660.4,6.6"/>
	<path class="st10" d="M664.2,10.3c2.1-2.1,2.1-5.4,0-7.5s-5.4-2.1-7.5,0s-2.1,5.4,0,7.5S662.1,12.4,664.2,10.3z"/>
</g>
</svg>
